<svg xmlns="http://www.w3.org/2000/svg" xmlns:xlink="http://www.w3.org/1999/xlink" width="20" height="20" viewBox="0 0 20 20"><defs><style>.a{fill:#fff;}.b{clip-path:url(#a);}</style><clipPath id="a"><rect class="a" width="20" height="20" transform="translate(31 161)"/></clipPath></defs><g class="b" transform="translate(-31 -161)"><path class="a" d="M19.4,10.588H10.68l5.81,5.81a.59.59,0,0,0,.816.025,8.805,8.805,0,0,0,2.689-5.179.589.589,0,0,0-.59-.656Zm-.582-2.382a8.844,8.844,0,0,0-8.2-8.2A.592.592,0,0,0,10,.6V8.824h8.227A.591.591,0,0,0,18.822,8.206ZM8.235,10.588V1.864a.589.589,0,0,0-.656-.59A8.817,8.817,0,0,0,.005,10.308a8.932,8.932,0,0,0,8.93,8.515A8.755,8.755,0,0,0,13.908,17.2a.584.584,0,0,0,.058-.885Z" transform="translate(31 161.588)"/></g></svg>