<svg xmlns="http://www.w3.org/2000/svg" xmlns:xlink="http://www.w3.org/1999/xlink" width="20" height="20" viewBox="0 0 20 20"><defs><style>.a{fill:#fff;}.b{clip-path:url(#a);}</style><clipPath id="a"><rect class="a" width="20" height="20" transform="translate(31 161)"/></clipPath></defs><g class="b" transform="translate(-31 -161)"><path class="a" d="M9.72,36.085l-6.4,5.272v5.69a.556.556,0,0,0,.556.556l3.891-.01a.556.556,0,0,0,.553-.556V43.714a.556.556,0,0,1,.556-.556h2.222a.556.556,0,0,1,.556.556v3.321a.556.556,0,0,0,.556.557L16.1,47.6a.556.556,0,0,0,.556-.556V41.353l-6.4-5.268a.423.423,0,0,0-.531,0Zm10.111,3.583-2.9-2.393V32.467a.417.417,0,0,0-.417-.417H14.567a.417.417,0,0,0-.417.417v2.521L11.042,32.43a1.667,1.667,0,0,0-2.118,0L.136,39.668a.417.417,0,0,0-.056.587l.885,1.076a.417.417,0,0,0,.587.057L9.72,34.661a.423.423,0,0,1,.531,0l8.167,6.727A.417.417,0,0,0,19,41.332l.885-1.076a.417.417,0,0,0-.059-.588Z" transform="translate(31.015 130.95)"/></g></svg>