<svg xmlns="http://www.w3.org/2000/svg" xmlns:xlink="http://www.w3.org/1999/xlink" width="20" height="20" viewBox="0 0 20 20"><defs><style>.a{fill:#fff;}.b{clip-path:url(#a);}</style><clipPath id="a"><rect class="a" width="20" height="20" transform="translate(1638 30)"/></clipPath></defs><g class="b" transform="translate(-1638 -30)"><path class="a" d="M8.6,19.667a2.458,2.458,0,0,0,2.457-2.458H6.147A2.458,2.458,0,0,0,8.6,19.667Zm8.273-5.751c-.742-.8-2.131-2-2.131-5.926A6.066,6.066,0,0,0,9.833,2.03v-.8a1.228,1.228,0,1,0-2.457,0v.8A6.066,6.066,0,0,0,2.461,7.99c0,3.929-1.389,5.129-2.131,5.926A1.2,1.2,0,0,0,0,14.75a1.23,1.23,0,0,0,1.233,1.229H15.975a1.23,1.23,0,0,0,1.233-1.229A1.2,1.2,0,0,0,16.878,13.916Z" transform="translate(1639.229 30)"/></g></svg>