<svg xmlns="http://www.w3.org/2000/svg" xmlns:xlink="http://www.w3.org/1999/xlink" width="20" height="20" viewBox="0 0 20 20"><defs><style>.a{fill:#fff;}.b{clip-path:url(#a);}</style><clipPath id="a"><rect class="a" width="20" height="20" transform="translate(31 161)"/></clipPath></defs><g class="b" transform="translate(-31 -161)"><path class="a" d="M36.908,20.084l-1.66-.958a7.505,7.505,0,0,0,0-2.735l1.66-.958a.471.471,0,0,0,.214-.545A9.7,9.7,0,0,0,34.991,11.2a.469.469,0,0,0-.577-.09l-1.66.958A7.353,7.353,0,0,0,30.385,10.7V8.789a.467.467,0,0,0-.366-.456,9.8,9.8,0,0,0-4.255,0,.467.467,0,0,0-.366.456v1.917a7.585,7.585,0,0,0-2.369,1.368l-1.656-.958a.463.463,0,0,0-.577.09,9.645,9.645,0,0,0-2.131,3.686.466.466,0,0,0,.214.545l1.66.958a7.5,7.5,0,0,0,0,2.735l-1.66.958a.471.471,0,0,0-.214.545A9.7,9.7,0,0,0,20.8,24.319a.469.469,0,0,0,.577.09l1.66-.958A7.353,7.353,0,0,0,25.4,24.818v1.917a.467.467,0,0,0,.366.456,9.8,9.8,0,0,0,4.255,0,.467.467,0,0,0,.366-.456V24.818a7.585,7.585,0,0,0,2.369-1.368l1.66.958a.463.463,0,0,0,.577-.09,9.645,9.645,0,0,0,2.131-3.686A.481.481,0,0,0,36.908,20.084Zm-9.016.791a3.117,3.117,0,1,1,3.117-3.117A3.121,3.121,0,0,1,27.892,20.875Z" transform="translate(13.356 152.901)"/></g></svg>